<svg width="25" height="25" viewBox="0 0 25 25" fill="none" xmlns="http://www.w3.org/2000/svg">
<g filter="url(#filter0_i_1_1013)">
<path d="M2.08331 6.25001C2.08331 3.94882 3.94879 2.08334 6.24998 2.08334H18.75C21.0512 2.08334 22.9166 3.94882 22.9166 6.25001V18.75C22.9166 21.0512 21.0512 22.9167 18.75 22.9167H6.24998C3.94879 22.9167 2.08331 21.0512 2.08331 18.75V6.25001Z" fill="url(#paint0_linear_1_1013)"/>
</g>
<g filter="url(#filter1_dd_1_1013)">
<path d="M2.08325 6.16667C2.08325 3.86548 3.94873 2 6.24992 2H18.7499C21.0511 2 22.9166 3.86548 22.9166 6.16667V18.6667C22.9166 20.9679 21.0511 22.8333 18.7499 22.8333H6.24992C3.94873 22.8333 2.08325 20.9679 2.08325 18.6667V6.16667Z" fill="url(#paint1_linear_1_1013)"/>
</g>
<g filter="url(#filter2_d_1_1013)">
<path fill-rule="evenodd" clip-rule="evenodd" d="M18.4804 8.51907C18.1211 8.16031 17.5386 8.16031 17.1793 8.51907L11.3104 14.379L7.82061 10.8946C7.4613 10.5358 6.87874 10.5358 6.51942 10.8946C6.16011 11.2533 6.16011 11.835 6.51942 12.1938L10.423 16.0913C10.4765 16.1447 10.5349 16.1902 10.5967 16.2277C10.6201 16.2577 10.6457 16.2866 10.6733 16.3143C11.0326 16.673 11.6152 16.673 11.9745 16.3143L18.4804 9.81827C18.8398 9.45951 18.8398 8.87784 18.4804 8.51907Z" fill="white"/>
</g>
<defs>
<filter id="filter0_i_1_1013" x="2.08331" y="2.08334" width="21.8333" height="21.8333" filterUnits="userSpaceOnUse" color-interpolation-filters="sRGB">
<feFlood flood-opacity="0" result="BackgroundImageFix"/>
<feBlend mode="normal" in="SourceGraphic" in2="BackgroundImageFix" result="shape"/>
<feColorMatrix in="SourceAlpha" type="matrix" values="0 0 0 0 0 0 0 0 0 0 0 0 0 0 0 0 0 0 127 0" result="hardAlpha"/>
<feOffset dx="1" dy="1"/>
<feGaussianBlur stdDeviation="1"/>
<feComposite in2="hardAlpha" operator="arithmetic" k2="-1" k3="1"/>
<feColorMatrix type="matrix" values="0 0 0 0 0 0 0 0 0 0 0 0 0 0 0 0 0 0 0.1 0"/>
<feBlend mode="normal" in2="shape" result="effect1_innerShadow_1_1013"/>
</filter>
<filter id="filter1_dd_1_1013" x="1.88325" y="1.8" width="23.0333" height="23.0333" filterUnits="userSpaceOnUse" color-interpolation-filters="sRGB">
<feFlood flood-opacity="0" result="BackgroundImageFix"/>
<feColorMatrix in="SourceAlpha" type="matrix" values="0 0 0 0 0 0 0 0 0 0 0 0 0 0 0 0 0 0 127 0" result="hardAlpha"/>
<feOffset dx="1" dy="1"/>
<feGaussianBlur stdDeviation="0.5"/>
<feColorMatrix type="matrix" values="0 0 0 0 0 0 0 0 0 0 0 0 0 0 0 0 0 0 0.2 0"/>
<feBlend mode="normal" in2="BackgroundImageFix" result="effect1_dropShadow_1_1013"/>
<feColorMatrix in="SourceAlpha" type="matrix" values="0 0 0 0 0 0 0 0 0 0 0 0 0 0 0 0 0 0 127 0" result="hardAlpha"/>
<feOffset dx="0.4" dy="0.4"/>
<feGaussianBlur stdDeviation="0.3"/>
<feComposite in2="hardAlpha" operator="out"/>
<feColorMatrix type="matrix" values="0 0 0 0 0 0 0 0 0 0 0 0 0 0 0 0 0 0 0.2 0"/>
<feBlend mode="normal" in2="effect1_dropShadow_1_1013" result="effect2_dropShadow_1_1013"/>
<feBlend mode="normal" in="SourceGraphic" in2="effect2_dropShadow_1_1013" result="shape"/>
</filter>
<filter id="filter2_d_1_1013" x="6.04994" y="8.05" width="13.7" height="9.53334" filterUnits="userSpaceOnUse" color-interpolation-filters="sRGB">
<feFlood flood-opacity="0" result="BackgroundImageFix"/>
<feColorMatrix in="SourceAlpha" type="matrix" values="0 0 0 0 0 0 0 0 0 0 0 0 0 0 0 0 0 0 127 0" result="hardAlpha"/>
<feOffset dx="0.4" dy="0.4"/>
<feGaussianBlur stdDeviation="0.3"/>
<feComposite in2="hardAlpha" operator="out"/>
<feColorMatrix type="matrix" values="0 0 0 0 0 0 0 0 0 0 0 0 0 0 0 0 0 0 0.2 0"/>
<feBlend mode="normal" in2="BackgroundImageFix" result="effect1_dropShadow_1_1013"/>
<feBlend mode="normal" in="SourceGraphic" in2="effect1_dropShadow_1_1013" result="shape"/>
</filter>
<linearGradient id="paint0_linear_1_1013" x1="12.5" y1="2.08334" x2="12.5" y2="22.9167" gradientUnits="userSpaceOnUse">
<stop stop-color="#E8E8E8"/>
<stop offset="1" stop-color="#F7F7F7"/>
</linearGradient>
<linearGradient id="paint1_linear_1_1013" x1="12.4999" y1="2" x2="12.4999" y2="22.8333" gradientUnits="userSpaceOnUse">
<stop stop-color="#50D2B3"/>
<stop offset="1" stop-color="#15B891"/>
</linearGradient>
</defs>
</svg>
