<svg width="110" height="94" viewBox="0 0 110 94" fill="none" xmlns="http://www.w3.org/2000/svg">
<path d="M41.8426 0.711409C42.049 0.276621 42.484 0 42.9616 0H64.6081C65.5216 0 66.1216 0.963287 65.7267 1.79526L33.5193 69.649C33.1249 70.4799 32.0076 70.6111 31.435 69.8938L17.8599 52.8894C17.5597 52.5134 17.5002 51.9966 17.7069 51.5609L41.8426 0.711409Z" fill="#0C4471"/>
<path d="M59.5489 58.0711C63.4315 58.0711 66.5789 54.8914 66.5789 50.9689C66.5789 47.0465 63.4315 43.8667 59.5489 43.8667C55.6663 43.8667 52.5188 47.0465 52.5188 50.9689C52.5188 54.8914 55.6663 58.0711 59.5489 58.0711Z" fill="#0092FF"/>
<path d="M107.932 90.24C109.074 90.24 110 89.3048 110 88.1511C110 86.9975 109.074 86.0623 107.932 86.0623C106.79 86.0623 105.865 86.9975 105.865 88.1511C105.865 89.3048 106.79 90.24 107.932 90.24Z" fill="#0092FF"/>
<path d="M8.26243 87.2771H2.21822L0.89326 90.24H0.0744629L4.86815 79.712H5.62739L10.4211 90.24H9.60228L8.26243 87.2771ZM7.97957 86.6304L5.24033 80.5542L2.51597 86.6304H7.97957ZM12.3129 79.712H13.0722V89.5482H19.0717V90.24H12.3129V79.712ZM22.0422 80.4038H18.2906V79.712H26.553V80.4038H22.8014V90.24H22.0422V80.4038ZM28.4359 79.712H29.1951V90.24H28.4359V79.712ZM41.3122 79.712V90.24H40.6869L33.5857 81.0957V90.24H32.8265V79.712H33.4666L40.5529 88.8563V79.712H41.3122ZM49.5343 80.4038V84.9008H55.0873V85.5926H49.5343V90.24H48.7751V79.712H55.7423V80.4038H49.5343ZM57.7831 82.3891H58.5275V90.24H57.7831V82.3891ZM58.1553 80.479C57.9866 80.479 57.8427 80.4239 57.7236 80.3136C57.6045 80.1933 57.5449 80.0479 57.5449 79.8774C57.5449 79.707 57.6045 79.5616 57.7236 79.4413C57.8427 79.321 57.9866 79.2608 58.1553 79.2608C58.324 79.2608 58.4679 79.321 58.587 79.4413C58.7061 79.5516 58.7657 79.692 58.7657 79.8624C58.7657 80.0329 58.7061 80.1782 58.587 80.2986C58.4679 80.4189 58.324 80.479 58.1553 80.479ZM65.4612 82.329C66.4338 82.329 67.203 82.6147 67.7687 83.1862C68.3344 83.7578 68.6173 84.58 68.6173 85.6528V90.24H67.8729V85.713C67.8729 84.8306 67.6496 84.1588 67.203 83.6976C66.7663 83.2364 66.151 83.0058 65.357 83.0058C64.4439 83.0058 63.7243 83.2815 63.1983 83.833C62.6723 84.3844 62.4093 85.1264 62.4093 86.0589V90.24H61.665V82.3891H62.3795V84.0886C62.6475 83.5372 63.0445 83.106 63.5705 82.7952C64.1065 82.4844 64.7367 82.329 65.4612 82.329ZM75.5374 89.7437C75.3488 89.9242 75.1106 90.0645 74.8228 90.1648C74.5449 90.255 74.2521 90.3002 73.9444 90.3002C73.2695 90.3002 72.7485 90.1147 72.3813 89.7437C72.0141 89.3627 71.8304 88.8363 71.8304 88.1645V83.0358H70.4013V82.3891H71.8304V80.6746H72.5748V82.3891H75.0461V83.0358H72.5748V88.0893C72.5748 88.6006 72.6939 88.9917 72.9321 89.2624C73.1802 89.5231 73.5425 89.6534 74.0189 89.6534C74.5052 89.6534 74.9071 89.5081 75.2247 89.2173L75.5374 89.7437ZM83.9023 86.495H77.218C77.2378 87.1067 77.3916 87.6531 77.6795 88.1344C77.9673 88.6057 78.3543 88.9716 78.8407 89.2323C79.3369 89.493 79.8927 89.6234 80.508 89.6234C81.0142 89.6234 81.4807 89.5331 81.9074 89.3526C82.3441 89.1621 82.7064 88.8864 82.9942 88.5254L83.4259 89.0218C83.0885 89.4329 82.6617 89.7487 82.1456 89.9693C81.6395 90.1899 81.0886 90.3002 80.4931 90.3002C79.719 90.3002 79.0292 90.1297 78.4238 89.7888C77.8184 89.4479 77.342 88.9766 76.9946 88.375C76.6572 87.7734 76.4885 87.0866 76.4885 86.3146C76.4885 85.5525 76.6473 84.8707 76.9649 84.2691C77.2924 83.6575 77.739 83.1812 78.3047 82.8403C78.8704 82.4994 79.5056 82.329 80.2103 82.329C80.9149 82.329 81.5452 82.4994 82.101 82.8403C82.6667 83.1712 83.1083 83.6374 83.4259 84.239C83.7534 84.8406 83.9172 85.5225 83.9172 86.2845L83.9023 86.495ZM80.2103 82.9907C79.6644 82.9907 79.1731 83.1161 78.7365 83.3667C78.2998 83.6074 77.9474 83.9533 77.6795 84.4045C77.4214 84.8457 77.2725 85.347 77.2328 85.9085H83.1877C83.158 85.347 83.0091 84.8457 82.7411 84.4045C82.4731 83.9633 82.1208 83.6174 81.6841 83.3667C81.2474 83.1161 80.7561 82.9907 80.2103 82.9907ZM89.3018 90.3002C88.5475 90.3002 87.8727 90.1297 87.2772 89.7888C86.6817 89.4479 86.2152 88.9766 85.8778 88.375C85.5403 87.7634 85.3716 87.0766 85.3716 86.3146C85.3716 85.5425 85.5403 84.8557 85.8778 84.2541C86.2152 83.6425 86.6817 83.1712 87.2772 82.8403C87.8727 82.4994 88.5475 82.329 89.3018 82.329C89.9271 82.329 90.4928 82.4543 90.999 82.705C91.5151 82.9456 91.9319 83.3016 92.2495 83.7728L91.6987 84.1789C91.4208 83.7878 91.0734 83.4971 90.6566 83.3066C90.2496 83.106 89.7981 83.0058 89.3018 83.0058C88.6964 83.0058 88.1506 83.1461 87.6642 83.4269C87.1878 83.6976 86.8107 84.0836 86.5328 84.585C86.2648 85.0863 86.1309 85.6628 86.1309 86.3146C86.1309 86.9663 86.2648 87.5428 86.5328 88.0442C86.8107 88.5455 87.1878 88.9365 87.6642 89.2173C88.1506 89.488 88.6964 89.6234 89.3018 89.6234C89.7981 89.6234 90.2496 89.5281 90.6566 89.3376C91.0734 89.1371 91.4208 88.8413 91.6987 88.4502L92.2495 88.8563C91.9319 89.3276 91.5151 89.6885 90.999 89.9392C90.4928 90.1798 89.9271 90.3002 89.3018 90.3002ZM98.1432 82.329C99.1158 82.329 99.885 82.6147 100.451 83.1862C101.016 83.7578 101.299 84.58 101.299 85.6528V90.24H100.555V85.713C100.555 84.8306 100.332 84.1588 99.885 83.6976C99.4483 83.2364 98.833 83.0058 98.039 83.0058C97.1259 83.0058 96.4063 83.2815 95.8803 83.833C95.3543 84.3844 95.0913 85.1264 95.0913 86.0589V90.24H94.3469V79.0803H95.0913V84.0285C95.3593 83.487 95.7563 83.0709 96.2823 82.7802C96.8083 82.4794 97.4286 82.329 98.1432 82.329Z" fill="#0C4471"/>
</svg>
